<svg xmlns="http://www.w3.org/2000/svg" width="1000" height="345" viewBox="0 0 1000 345" role="img" aria-labelledby="title desc">
<title id="title">Linguagens dos meus projetos</title>
<desc id="desc">Percentuais das linguagens detectadas nos repositórios públicos.</desc>
<style>
  text { font-family: -apple-system, BlinkMacSystemFont, 'Segoe UI', sans-serif; }
</style>
<rect x="2" y="2" width="996" height="341" rx="18" fill="#FFFFFF" stroke="#D0CBD8" stroke-width="3"/>
<text x="80" y="67" fill="#B51F68" font-size="34" font-weight="750">Linguagens dos meus projetos</text>
<rect x="80" y="112" width="253" height="22" fill="#18B8B2"/>
<rect x="333" y="112" width="248" height="22" fill="#FF5A4F"/>
<rect x="581" y="112" width="159" height="22" fill="#C25491"/>
<rect x="740" y="112" width="111" height="22" fill="#6C3FA0"/>
<rect x="851" y="112" width="63" height="22" fill="#5367A5"/>
<rect x="914" y="112" width="5" height="22" fill="#F05A2A"/>
<rect x="919" y="112" width="1" height="22" fill="#7D8B72"/>
<rect x="80" y="112" width="840" height="22" rx="11" fill="none" stroke="#FFFFFF" stroke-width="2"/>
<circle cx="80" cy="176" r="9" fill="#18B8B2"/>
<text x="102" y="182" fill="#263238" font-size="18">EJS 30.14%</text>
<circle cx="560" cy="176" r="9" fill="#FF5A4F"/>
<text x="582" y="182" fill="#263238" font-size="18">JavaScript 29.54%</text>
<circle cx="80" cy="218" r="9" fill="#C25491"/>
<text x="102" y="224" fill="#263238" font-size="18">CSS 18.94%</text>
<circle cx="560" cy="218" r="9" fill="#6C3FA0"/>
<text x="582" y="224" fill="#263238" font-size="18">PHP 13.19%</text>
<circle cx="80" cy="260" r="9" fill="#5367A5"/>
<text x="102" y="266" fill="#263238" font-size="18">HTML 7.54%</text>
<circle cx="560" cy="260" r="9" fill="#F05A2A"/>
<text x="582" y="266" fill="#263238" font-size="18">Python 0.64%</text>
<circle cx="80" cy="302" r="9" fill="#7D8B72"/>
<text x="102" y="308" fill="#263238" font-size="18">Outros 0.01%</text>
<text x="920" y="320" text-anchor="end" fill="#6D6877" font-size="13">5 repositórios · atualizado em 17/07/2026</text>
</svg>
