<svg xmlns="http://www.w3.org/2000/svg" width="1280" height="550" viewBox="0 0 1280 550">
  <defs>
    <filter id="shadow" x="-20%" y="-20%" width="150%" height="160%">
      <feDropShadow dx="0" dy="9" stdDeviation="12" flood-color="#000000" flood-opacity=".24"/>
    </filter>
    <style>
      .route{stroke-dasharray:14 10;animation:route 18s linear infinite}
      @keyframes route{to{stroke-dashoffset:-480}}
      text{font-family:Arial,Helvetica,sans-serif}
    </style>
  </defs>

  <rect width="1280" height="550" rx="18" fill="#0E1110"/>
  <text x="36" y="44" fill="#F1ECE2" font-size="22" font-weight="800">TRILHA PROFISSIONAL</text>
  <text x="1244" y="44" text-anchor="end" fill="#AAA59A" font-size="12">experiência de negócio → formação → dados → analytics → BI → automação</text>
  <line x1="36" y1="62" x2="1244" y2="62" stroke="#343A35"/>

  <path d="M163 158 H457 H751 H1045 C1160 158 1160 388 1045 388 H751 H457" fill="none" stroke="#343A35" stroke-width="9" stroke-linecap="round"/>
  <path d="M163 158 H457 H751 H1045 C1160 158 1160 388 1045 388 H751 H457" fill="none" stroke="#D6C5A1" stroke-width="2.5" stroke-linecap="round" class="route"/>

  <circle cx="163" cy="158" r="8" fill="#B35C3D"/>
  <circle cx="457" cy="158" r="8" fill="#C7A24A"/>
  <circle cx="751" cy="158" r="8" fill="#7D8B72"/>
  <circle cx="1045" cy="158" r="8" fill="#6F7B83"/>
  <circle cx="1045" cy="388" r="8" fill="#7C4653"/>
  <circle cx="751" cy="388" r="8" fill="#B35C3D"/>
  <circle cx="457" cy="388" r="8" fill="#7D8B72"/>

  <circle r="7" fill="#F1ECE2">
    <animateMotion dur="12s" repeatCount="indefinite" path="M163 158 H457 H751 H1045 C1160 158 1160 388 1045 388 H751 H457"/>
  </circle>

  
        <g transform="translate(38 96)">
          <g>
            <animateTransform attributeName="transform" type="translate"
              values="0 0;0 -4;0 0" dur="7s" begin="0s"
              repeatCount="indefinite"/>
            <rect width="250" height="124" rx="9" fill="#171B18" stroke="#343A35" filter="url(#shadow)"/>
            <rect x="0" y="0" width="10" height="124" rx="9 0 0 9" fill="#B35C3D"/>
            <text x="22" y="31" fill="#B35C3D" font-size="12" font-weight="800" letter-spacing="1.2">01</text>
            <g transform="translate(190 22)" fill="none" stroke="#B35C3D" stroke-width="2.2" stroke-linecap="round" stroke-linejoin="round">
              <path d="M7 22h8l4-6 6 12 4-6h8"/>
            </g>
            <text x="22" y="70" fill="#F1ECE2" font-size="18" font-weight="800">PROCESSOS</text>
            <text x="22" y="96" fill="#AAA59A" font-size="12">base profissional</text>
          </g>
        </g>
        <g transform="translate(332 96)">
          <g>
            <animateTransform attributeName="transform" type="translate"
              values="0 0;0 -4;0 0" dur="7s" begin="0.25s"
              repeatCount="indefinite"/>
            <rect width="250" height="124" rx="9" fill="#171B18" stroke="#343A35" filter="url(#shadow)"/>
            <rect x="0" y="0" width="10" height="124" rx="9 0 0 9" fill="#C7A24A"/>
            <text x="22" y="31" fill="#C7A24A" font-size="12" font-weight="800" letter-spacing="1.2">02</text>
            <g transform="translate(190 22)" fill="none" stroke="#C7A24A" stroke-width="2.2" stroke-linecap="round" stroke-linejoin="round">
              <path d="M8 18l14-7 14 7-14 7zM14 23v8"/>
            </g>
            <text x="22" y="70" fill="#F1ECE2" font-size="18" font-weight="800">DSM — FATEC</text>
            <text x="22" y="96" fill="#AAA59A" font-size="12">formação técnica</text>
          </g>
        </g>
        <g transform="translate(626 96)">
          <g>
            <animateTransform attributeName="transform" type="translate"
              values="0 0;0 -4;0 0" dur="7s" begin="0.5s"
              repeatCount="indefinite"/>
            <rect width="250" height="124" rx="9" fill="#171B18" stroke="#343A35" filter="url(#shadow)"/>
            <rect x="0" y="0" width="10" height="124" rx="9 0 0 9" fill="#7D8B72"/>
            <text x="22" y="31" fill="#7D8B72" font-size="12" font-weight="800" letter-spacing="1.2">03</text>
            <g transform="translate(190 22)" fill="none" stroke="#7D8B72" stroke-width="2.2" stroke-linecap="round" stroke-linejoin="round">
              <path d="M10 10h24v20H10zM17 35h10"/>
            </g>
            <text x="22" y="70" fill="#F1ECE2" font-size="18" font-weight="800">SISTEMAS WEB</text>
            <text x="22" y="96" fill="#AAA59A" font-size="12">projetos funcionais</text>
          </g>
        </g>
        <g transform="translate(920 96)">
          <g>
            <animateTransform attributeName="transform" type="translate"
              values="0 0;0 -4;0 0" dur="7s" begin="0.75s"
              repeatCount="indefinite"/>
            <rect width="250" height="124" rx="9" fill="#171B18" stroke="#343A35" filter="url(#shadow)"/>
            <rect x="0" y="0" width="10" height="124" rx="9 0 0 9" fill="#6F7B83"/>
            <text x="22" y="31" fill="#6F7B83" font-size="12" font-weight="800" letter-spacing="1.2">04</text>
            <g transform="translate(190 22)" fill="none" stroke="#6F7B83" stroke-width="2.2" stroke-linecap="round" stroke-linejoin="round">
              <path d="M10 31V22h6v9M21 31V15h6v16M32 31V9h6v22"/>
            </g>
            <text x="22" y="70" fill="#F1ECE2" font-size="18" font-weight="800">DADOS &amp; BI</text>
            <text x="22" y="96" fill="#AAA59A" font-size="12">indicadores e leitura</text>
          </g>
        </g>
        <g transform="translate(920 326)">
          <g>
            <animateTransform attributeName="transform" type="translate"
              values="0 0;0 -4;0 0" dur="7s" begin="1s"
              repeatCount="indefinite"/>
            <rect width="250" height="124" rx="9" fill="#171B18" stroke="#343A35" filter="url(#shadow)"/>
            <rect x="0" y="0" width="10" height="124" rx="9 0 0 9" fill="#7C4653"/>
            <text x="22" y="31" fill="#7C4653" font-size="12" font-weight="800" letter-spacing="1.2">05</text>
            <g transform="translate(190 22)" fill="none" stroke="#7C4653" stroke-width="2.2" stroke-linecap="round" stroke-linejoin="round">
              <path d="M11 24c0-7 5-12 11-12s11 5 11 12-5 12-11 12-11-5-11-12zM16 24h12"/>
            </g>
            <text x="22" y="70" fill="#F1ECE2" font-size="18" font-weight="800">ML &amp; MINERAÇÃO</text>
            <text x="22" y="96" fill="#AAA59A" font-size="12">próximos estudos</text>
          </g>
        </g>
        <g transform="translate(626 326)">
          <g>
            <animateTransform attributeName="transform" type="translate"
              values="0 0;0 -4;0 0" dur="7s" begin="1.25s"
              repeatCount="indefinite"/>
            <rect width="250" height="124" rx="9" fill="#171B18" stroke="#343A35" filter="url(#shadow)"/>
            <rect x="0" y="0" width="10" height="124" rx="9 0 0 9" fill="#B35C3D"/>
            <text x="22" y="31" fill="#B35C3D" font-size="12" font-weight="800" letter-spacing="1.2">06</text>
            <g transform="translate(190 22)" fill="none" stroke="#B35C3D" stroke-width="2.2" stroke-linecap="round" stroke-linejoin="round">
              <path d="M8 29h7l4-8 6 6 9-13M29 14h6v6"/>
            </g>
            <text x="22" y="70" fill="#F1ECE2" font-size="18" font-weight="800">AUTOMAÇÃO</text>
            <text x="22" y="96" fill="#AAA59A" font-size="12">redução de retrabalho</text>
          </g>
        </g>
        <g transform="translate(332 326)">
          <g>
            <animateTransform attributeName="transform" type="translate"
              values="0 0;0 -4;0 0" dur="7s" begin="1.5s"
              repeatCount="indefinite"/>
            <rect width="250" height="124" rx="9" fill="#171B18" stroke="#343A35" filter="url(#shadow)"/>
            <rect x="0" y="0" width="10" height="124" rx="9 0 0 9" fill="#7D8B72"/>
            <text x="22" y="31" fill="#7D8B72" font-size="12" font-weight="800" letter-spacing="1.2">07</text>
            <g transform="translate(190 22)" fill="none" stroke="#7D8B72" stroke-width="2.2" stroke-linecap="round" stroke-linejoin="round">
              <path d="M10 31l7-7 6 6 12-15M29 15h6v6"/>
            </g>
            <text x="22" y="70" fill="#F1ECE2" font-size="18" font-weight="800">ESTÁGIO</text>
            <text x="22" y="96" fill="#AAA59A" font-size="12">próximo passo</text>
          </g>
        </g>

  <g transform="translate(72 350)">
    <circle cx="78" cy="42" r="40" fill="none" stroke="#7C4653" opacity=".45"/>
    <circle cx="78" cy="42" r="66" fill="none" stroke="#343A35" opacity=".35"/>
    <circle cx="136" cy="42" r="5" fill="#7C4653"/>
    <text x="78" y="47" text-anchor="middle" fill="#AAA59A" font-size="11" font-weight="700">PRÓXIMO</text>
  </g>

  <text x="36" y="520" fill="#AAA59A" font-size="11" letter-spacing="1.2">
    PROCESSOS · FORMAÇÃO · SISTEMAS · DADOS · IA · AUTOMAÇÃO · RESULTADOS
  </text>

  <rect x="1" y="1" width="1278" height="548" rx="17" fill="none" stroke="#343A35"/>
</svg>