<svg xmlns="http://www.w3.org/2000/svg" width="1280" height="450" viewBox="0 0 1280 450" role="img" aria-labelledby="title desc">
<title id="title">Tecnologias aplicadas em projetos</title>
<desc id="desc">Tecnologias já utilizadas em projetos reais, organizadas por área: dados e BI, back-end e automação, front-end e estrutura, ferramentas e deploy.</desc>
<defs><style>text{font-family:Arial,Helvetica,sans-serif}</style></defs>
<rect width="1280" height="450" rx="18" fill="#F7F3EA"/>
<text x="36" y="44" fill="#20241F" font-size="20" font-weight="800">TECNOLOGIAS APLICADAS EM PROJETOS</text>
<text x="1244" y="44" text-anchor="end" fill="#6B655A" font-size="12">stack já utilizada — não é lista de aspiração</text>
<path d="M36 58 H1244" stroke="#DDD5C3" stroke-width="1"/>
<rect x="36" y="77" width="4" height="16" rx="2" fill="#C7A24A"/>
<text x="50" y="90" fill="#C7A24A" font-size="12.5" font-weight="800" letter-spacing="1.1">DADOS &amp; BI</text>
<rect x="36" y="116" width="74" height="30" rx="15" fill="#FFFFFF" stroke="#E3DBC8" stroke-width="1.2"/>
<text x="73.0" y="135.5" text-anchor="middle" fill="#20241F" font-size="12.5" font-weight="700">Python</text>
<rect x="120" y="116" width="103" height="30" rx="15" fill="#FFFFFF" stroke="#E3DBC8" stroke-width="1.2"/>
<text x="171.5" y="135.5" text-anchor="middle" fill="#20241F" font-size="12.5" font-weight="700">SQL Server</text>
<rect x="233" y="116" width="138" height="30" rx="15" fill="#FFFFFF" stroke="#E3DBC8" stroke-width="1.2"/>
<text x="302.0" y="135.5" text-anchor="middle" fill="#20241F" font-size="12.5" font-weight="700">MySQL / MariaDB</text>
<rect x="381" y="116" width="81" height="30" rx="15" fill="#FFFFFF" stroke="#E3DBC8" stroke-width="1.2"/>
<text x="421.5" y="135.5" text-anchor="middle" fill="#20241F" font-size="12.5" font-weight="700">MongoDB</text>
<rect x="472" y="116" width="88" height="30" rx="15" fill="#FFFFFF" stroke="#E3DBC8" stroke-width="1.2"/>
<text x="516.0" y="135.5" text-anchor="middle" fill="#20241F" font-size="12.5" font-weight="700">Power BI</text>
<rect x="570" y="116" width="110" height="30" rx="15" fill="#FFFFFF" stroke="#E3DBC8" stroke-width="1.2"/>
<text x="625.0" y="135.5" text-anchor="middle" fill="#20241F" font-size="12.5" font-weight="700">Power Query</text>
<rect x="690" y="116" width="64" height="30" rx="15" fill="#FFFFFF" stroke="#E3DBC8" stroke-width="1.2"/>
<text x="722.0" y="135.5" text-anchor="middle" fill="#20241F" font-size="12.5" font-weight="700">DAX</text>
<rect x="36" y="163" width="4" height="16" rx="2" fill="#B35C3D"/>
<text x="50" y="176" fill="#B35C3D" font-size="12.5" font-weight="800" letter-spacing="1.1">BACK-END &amp; AUTOMAÇÃO</text>
<rect x="36" y="202" width="81" height="30" rx="15" fill="#FFFFFF" stroke="#E3DBC8" stroke-width="1.2"/>
<text x="76.5" y="221.5" text-anchor="middle" fill="#20241F" font-size="12.5" font-weight="700">Node.js</text>
<rect x="127" y="202" width="81" height="30" rx="15" fill="#FFFFFF" stroke="#E3DBC8" stroke-width="1.2"/>
<text x="167.5" y="221.5" text-anchor="middle" fill="#20241F" font-size="12.5" font-weight="700">Express</text>
<rect x="218" y="202" width="64" height="30" rx="15" fill="#FFFFFF" stroke="#E3DBC8" stroke-width="1.2"/>
<text x="250.0" y="221.5" text-anchor="middle" fill="#20241F" font-size="12.5" font-weight="700">PHP</text>
<rect x="36" y="249" width="4" height="16" rx="2" fill="#7D8B72"/>
<text x="50" y="262" fill="#7D8B72" font-size="12.5" font-weight="800" letter-spacing="1.1">FRONT-END &amp; ESTRUTURA</text>
<rect x="36" y="288" width="103" height="30" rx="15" fill="#FFFFFF" stroke="#E3DBC8" stroke-width="1.2"/>
<text x="87.5" y="307.5" text-anchor="middle" fill="#20241F" font-size="12.5" font-weight="700">JavaScript</text>
<rect x="149" y="288" width="67" height="30" rx="15" fill="#FFFFFF" stroke="#E3DBC8" stroke-width="1.2"/>
<text x="182.5" y="307.5" text-anchor="middle" fill="#20241F" font-size="12.5" font-weight="700">HTML5</text>
<rect x="226" y="288" width="64" height="30" rx="15" fill="#FFFFFF" stroke="#E3DBC8" stroke-width="1.2"/>
<text x="258.0" y="307.5" text-anchor="middle" fill="#20241F" font-size="12.5" font-weight="700">CSS3</text>
<rect x="300" y="288" width="95" height="30" rx="15" fill="#FFFFFF" stroke="#E3DBC8" stroke-width="1.2"/>
<text x="347.5" y="307.5" text-anchor="middle" fill="#20241F" font-size="12.5" font-weight="700">Bootstrap</text>
<rect x="405" y="288" width="64" height="30" rx="15" fill="#FFFFFF" stroke="#E3DBC8" stroke-width="1.2"/>
<text x="437.0" y="307.5" text-anchor="middle" fill="#20241F" font-size="12.5" font-weight="700">EJS</text>
<rect x="479" y="288" width="64" height="30" rx="15" fill="#FFFFFF" stroke="#E3DBC8" stroke-width="1.2"/>
<text x="511.0" y="307.5" text-anchor="middle" fill="#20241F" font-size="12.5" font-weight="700">JSON</text>
<rect x="36" y="335" width="4" height="16" rx="2" fill="#6F7B83"/>
<text x="50" y="348" fill="#6F7B83" font-size="12.5" font-weight="800" letter-spacing="1.1">FERRAMENTAS &amp; DEPLOY</text>
<rect x="36" y="374" width="64" height="30" rx="15" fill="#FFFFFF" stroke="#E3DBC8" stroke-width="1.2"/>
<text x="68.0" y="393.5" text-anchor="middle" fill="#20241F" font-size="12.5" font-weight="700">Git</text>
<rect x="110" y="374" width="74" height="30" rx="15" fill="#FFFFFF" stroke="#E3DBC8" stroke-width="1.2"/>
<text x="147.0" y="393.5" text-anchor="middle" fill="#20241F" font-size="12.5" font-weight="700">GitHub</text>
<rect x="194" y="374" width="81" height="30" rx="15" fill="#FFFFFF" stroke="#E3DBC8" stroke-width="1.2"/>
<text x="234.5" y="393.5" text-anchor="middle" fill="#20241F" font-size="12.5" font-weight="700">VS Code</text>
<rect x="285" y="374" width="81" height="30" rx="15" fill="#FFFFFF" stroke="#E3DBC8" stroke-width="1.2"/>
<text x="325.5" y="393.5" text-anchor="middle" fill="#20241F" font-size="12.5" font-weight="700">Postman</text>
<rect x="376" y="374" width="74" height="30" rx="15" fill="#FFFFFF" stroke="#E3DBC8" stroke-width="1.2"/>
<text x="413.0" y="393.5" text-anchor="middle" fill="#20241F" font-size="12.5" font-weight="700">Render</text>
<rect x="460" y="374" width="74" height="30" rx="15" fill="#FFFFFF" stroke="#E3DBC8" stroke-width="1.2"/>
<text x="497.0" y="393.5" text-anchor="middle" fill="#20241F" font-size="12.5" font-weight="700">Vercel</text>
<rect x="544" y="374" width="103" height="30" rx="15" fill="#FFFFFF" stroke="#E3DBC8" stroke-width="1.2"/>
<text x="595.5" y="393.5" text-anchor="middle" fill="#20241F" font-size="12.5" font-weight="700">phpMyAdmin</text>
<rect x="1" y="1" width="1278" height="448" rx="17" fill="none" stroke="#DDD5C3"/>
</svg>